# xmcd
#
# Track frame offsets: 
#        150
#        12499
#        26727
#        34149
#        48043
#        64518
#        78304
#        96403
#        106357
#        115113
#        121034
#        133322
#        146726
#        159039
#        167107
#        180936
#
# Disc length: 2757 seconds
#
# Revision: 0
# Processed by: cddbd v1.5.2PL0 Copyright (c) Steve Scherf et al.
# Submitted via: ExactAudioCopy v1.0b1
#
DISCID=c90ac310
DTITLE=Johnny Cash - At Folsom Prison
DYEAR=1968
DGENRE=Country
TTITLE0=Folsom Prison Blues
TTITLE1=Dark As The Dungeon
TTITLE2=I Still Miss Someone
TTITLE3=Cocaine Blues
TTITLE4=25 Minutes To Go
TTITLE5=Orange Blossom Special
TTITLE6=The Long Black Veil
TTITLE7=Send A Picture Of Mother
TTITLE8=The Wall
TTITLE9=Dirty Old Egg-Sucking Dog
TTITLE10=Flushed From The Bathroom Of Your Heart
TTITLE11=Jackson
TTITLE12=Give My Love To Rose
TTITLE13=Got Stripes
TTITLE14=Green, Green Grass Of Home
TTITLE15=Greystone Chapel
EXTD=
EXTT0=
EXTT1=
EXTT2=
EXTT3=
EXTT4=
EXTT5=
EXTT6=
EXTT7=
EXTT8=
EXTT9=
EXTT10=
EXTT11=
EXTT12=
EXTT13=
EXTT14=
EXTT15=
PLAYORDER=
